HIERARCHY
ROOT Hips
{
	OFFSET 0.00000 0.00000 0.00000
	CHANNELS 6 Xposition Yposition Zposition Zrotation Yrotation Xrotation 
	JOINT LHipJoint
	{
		OFFSET 0 0 0
		CHANNELS 3 Zrotation Yrotation Xrotation
		JOINT LeftUpLeg
		{
			OFFSET 1.58895 -1.83665 0.71753
			CHANNELS 3 Zrotation Yrotation Xrotation
			JOINT LeftLeg
			{
				OFFSET 2.50528 -6.88321 0.00000
				CHANNELS 3 Zrotation Yrotation Xrotation
				JOINT LeftFoot
				{
					OFFSET 2.63244 -7.23257 0.00000
					CHANNELS 3 Zrotation Yrotation Xrotation
					JOINT LeftToeBase
					{
						OFFSET 0.23691 -0.65090 1.72750
						CHANNELS 3 Zrotation Yrotation Xrotation
						End Site
						{
							OFFSET 0.00000 -0.00000 0.92561
						}
					}
				}
			}
		}
	}
	JOINT RHipJoint
	{
		OFFSET 0 0 0
		CHANNELS 3 Zrotation Yrotation Xrotation
		JOINT RightUpLeg
		{
			OFFSET -1.51435 -1.83665 0.71753
			CHANNELS 3 Zrotation Yrotation Xrotation
			JOINT RightLeg
			{
				OFFSET -2.54551 -6.99375 0.00000
				CHANNELS 3 Zrotation Yrotation Xrotation
				JOINT RightFoot
				{
					OFFSET -2.66027 -7.30903 0.00000
					CHANNELS 3 Zrotation Yrotation Xrotation
					JOINT RightToeBase
					{
						OFFSET -0.22981 -0.63138 2.03959
						CHANNELS 3 Zrotation Yrotation Xrotation
						End Site
						{
							OFFSET -0.00000 -0.00000 1.07060
						}
					}
				}
			}
		}
	}
	JOINT LowerBack
	{
		OFFSET 0 0 0
		CHANNELS 3 Zrotation Yrotation Xrotation
		JOINT Spine
		{
			OFFSET -0.02651 1.86275 -0.11152
			CHANNELS 3 Zrotation Yrotation Xrotation
			JOINT Spine1
			{
				OFFSET 0.01019 1.86224 0.04087
				CHANNELS 3 Zrotation Yrotation Xrotation
				JOINT Neck
				{
					OFFSET 0 0 0
					CHANNELS 3 Zrotation Yrotation Xrotation
					JOINT Neck1
					{
						OFFSET -0.01926 1.80512 0.08867
						CHANNELS 3 Zrotation Yrotation Xrotation
						JOINT Head
						{
							OFFSET 0.05516 1.76451 -0.38475
							CHANNELS 3 Zrotation Yrotation Xrotation
							End Site
							{
								OFFSET 0.01592 1.82587 -0.14001
							}
						}
					}
				}
				JOINT LeftShoulder
				{
					OFFSET 0 0 0
					CHANNELS 3 Zrotation Yrotation Xrotation
					JOINT LeftArm
					{
						OFFSET 3.47116 1.51376 0.14491
						CHANNELS 3 Zrotation Yrotation Xrotation
						JOINT LeftForeArm
						{
							OFFSET 4.78095 -0.00000 0.00000
							CHANNELS 3 Zrotation Yrotation Xrotation
							JOINT LeftHand
							{
								OFFSET 3.58615 -0.00000 -0.00000
								CHANNELS 3 Zrotation Yrotation Xrotation
								JOINT LeftFingerBase
								{
									OFFSET 0 0 0
									CHANNELS 3 Zrotation Yrotation Xrotation
									JOINT LeftHandIndex1
									{
										OFFSET 0.65981 -0.00000 0.00000
										CHANNELS 3 Zrotation Yrotation Xrotation
										End Site
										{
											OFFSET 0.53196 -0.00000 0.00000
										}
									}
								}
								JOINT LThumb
								{
									OFFSET 0 0 0
									CHANNELS 3 Zrotation Yrotation Xrotation
									End Site
									{
										OFFSET 0.54008 -0.00000 0.54008
									}
								}
							}
						}
					}
				}
				JOINT RightShoulder
				{
					OFFSET 0 0 0
					CHANNELS 3 Zrotation Yrotation Xrotation
					JOINT RightArm
					{
						OFFSET -3.31725 1.61216 0.35156
						CHANNELS 3 Zrotation Yrotation Xrotation
						JOINT RightForeArm
						{
							OFFSET -4.48913 -0.00000 0.00000
							CHANNELS 3 Zrotation Yrotation Xrotation
							JOINT RightHand
							{
								OFFSET -3.70510 -0.00000 0.00000
								CHANNELS 3 Zrotation Yrotation Xrotation
								JOINT RightFingerBase
								{
									OFFSET 0 0 0
									CHANNELS 3 Zrotation Yrotation Xrotation
									JOINT RightHandIndex1
									{
										OFFSET -0.44914 -0.00000 0.00000
										CHANNELS 3 Zrotation Yrotation Xrotation
										End Site
										{
											OFFSET -0.36211 -0.00000 0.00000
										}
									}
								}
								JOINT RThumb
								{
									OFFSET 0 0 0
									CHANNELS 3 Zrotation Yrotation Xrotation
									End Site
									{
										OFFSET -0.36763 -0.00000 0.36763
									}
								}
							}
						}
					}
				}
			}
		}
	}
}
MOTION
Frames: 16
Frame Time: .0083333
-0.7324 18.6507 5.9997 0 0 0 0 0 0 -21 0 0 0 0 0 0 0 0 0 0 0 0 0 0 21 0 0 0 0 0 0 0 0 0 0 0 0 0 0 0 0 0 0 0 0 0 0 -16 0 0 21 0 0 11 0 0 0 -8 0 0 0 0 0 0 0 0 0 0 0 0 0 0 0 0 0 0 0 0 8 0 0 0 0 0 0 0 0 0 0 0 0 0 0 0 0 0
-0.7324 18.6507 5.9997 -2.2421 -2.0091 0.5003 0.0000 0.0000 0.0000 -12.9030 -8.7605 0.3012 1.3086 7.2463 20.4471 1.7702 5.9859 -27.8818 8.2322 -16.2874 -53.3949 0.0000 0.0000 0.0000 0.0000 0.0000 0.0000 0.0000 0.0000 0.0000 -0.0000 -0.0000 0.0000 -0.0000 -0.0000 0.0000 0.3269 0.7606 0.6122 0.6036 1.0344 -2.1227 0.4068 0.5164 -2.5247 0.2831 -1.1326 -10.9110 1.3292 -2.0195 25.3392 0.1812 -0.7632 9.8315 0.0000 -0.0000 0.0000 -91.8830 14.2422 24.9112 21.7764 -32.7234 -6.4645 -0.0000 -0.0000 10.0016 10.2855 -25.4625 -4.4610 -7.1250 0.0000 -0.0000 -11.7484 4.6116 11.0044 0.0000 -0.0000 0.0000 89.9854 -19.5495 24.4536 -26.6140 37.8086 -9.2615 0.0000 0.0000 3.1229 -2.1716 -40.8541 1.4209 7.1250 -0.0000 -0.0000 44.1728 -65.6065 -24.0148
-0.7322 18.6507 6.0010 -2.2150 -2.0175 0.5049 0.0000 0.0000 0.0000 -12.9481 -8.7991 0.3214 1.3082 7.2454 20.4443 1.7720 6.0200 -27.9138 8.2193 -16.2782 -53.3486 0.0000 0.0000 0.0000 0.0000 0.0000 0.0000 0.0000 0.0000 0.0000 -0.0000 -0.0000 0.0000 -0.0000 -0.0000 0.0000 0.3020 0.7626 0.6205 0.5958 1.0367 -2.1377 0.4125 0.5179 -2.5450 0.2579 -1.1304 -10.9380 1.3511 -2.0177 25.3779 0.1932 -0.7618 9.8511 -0.0000 -0.0000 0.0000 -91.9088 14.2325 24.8699 21.7442 -32.6867 -6.4471 -0.0000 -0.0000 10.0138 10.2934 -25.4137 -4.4566 -7.1250 0.0000 -0.0000 -11.7418 4.6588 10.9873 -0.0000 -0.0000 0.0000 90.0599 -19.6080 24.3281 -26.7431 37.9331 -9.3408 0.0000 0.0000 3.1496 -2.2848 -40.6923 1.4901 7.1250 -0.0000 -0.0000 43.8115 -65.5243 -23.7040
-0.7330 18.6504 6.0028 -2.2163 -2.0338 0.4971 0.0000 0.0000 0.0000 -12.9579 -8.8140 0.3543 1.3082 7.2453 20.4440 1.7770 6.0386 -27.9579 8.2136 -16.2741 -53.3284 0.0000 0.0000 0.0000 0.0000 0.0000 0.0000 0.0000 0.0000 0.0000 -0.0000 -0.0000 0.0000 -0.0000 -0.0000 0.0000 0.2811 0.7706 0.6452 0.6088 1.0475 -2.1522 0.4367 0.5239 -2.5745 0.1841 -1.1354 -10.9573 1.4089 -2.0250 25.4229 0.2249 -0.7651 9.8725 -0.0000 -0.0000 0.0000 -91.9346 14.2648 24.8635 21.7495 -32.6927 -6.4500 -0.0000 -0.0000 10.0408 10.3295 -25.3871 -4.4681 -7.1250 0.0000 -0.0000 -11.7191 4.6808 10.9602 -0.0000 -0.0000 0.0000 90.1127 -19.6746 24.2037 -26.8967 38.0805 -9.4354 0.0000 0.0000 3.1891 -2.1768 -40.7079 1.4201 7.1250 -0.0000 -0.0000 43.9395 -65.5042 -23.7656
-0.7332 18.6504 6.0043 -2.2100 -2.0417 0.4972 0.0000 0.0000 0.0000 -12.9573 -8.7592 0.3459 1.3070 7.2420 20.4343 1.7764 6.0269 -27.9474 8.2272 -16.2839 -53.3771 0.0000 0.0000 0.0000 0.0000 0.0000 0.0000 0.0000 0.0000 0.0000 -0.0000 -0.0000 0.0000 -0.0000 -0.0000 0.0000 0.2796 0.7751 0.6407 0.6088 1.0535 -2.1507 0.4375 0.5269 -2.5706 0.1695 -1.1391 -10.9371 1.4114 -2.0273 25.4117 0.2282 -0.7675 9.8647 0.0000 -0.0000 0.0000 -91.9346 14.2651 24.8849 21.7450 -32.6877 -6.4476 -0.0000 -0.0000 10.0545 10.2804 -25.4228 -4.4523 -7.1250 0.0000 -0.0000 -11.7500 4.6513 10.9970 0.0000 -0.0000 0.0000 90.0229 -19.6552 24.4573 -26.9436 38.1253 -9.4643 0.0000 0.0000 2.9337 -2.1680 -40.9310 1.4208 7.1250 -0.0000 -0.0000 44.2974 -65.6598 -24.1470
-0.7324 18.6501 6.0058 -2.1740 -2.0501 0.5043 0.0000 0.0000 0.0000 -13.0089 -8.7963 0.3628 1.3062 7.2400 20.4283 1.7790 6.0534 -27.9800 8.2185 -16.2776 -53.3459 0.0000 0.0000 0.0000 0.0000 0.0000 0.0000 0.0000 0.0000 0.0000 -0.0000 -0.0000 0.0000 -0.0000 -0.0000 0.0000 0.2826 0.7749 0.6306 0.5790 1.0526 -2.1569 0.4054 0.5261 -2.5706 0.1954 -1.1304 -10.9329 1.3897 -2.0152 25.4300 0.2176 -0.7618 9.8699 -0.0000 0.0000 0.0000 -91.9122 14.2740 24.9139 21.7515 -32.6950 -6.4511 -0.0000 -0.0000 10.0129 10.1878 -25.3892 -4.4061 -7.1250 0.0000 -0.0000 -11.8047 4.6950 11.0407 -0.0000 0.0000 0.0000 89.9597 -19.6333 24.7326 -26.9568 38.1380 -9.4724 0.0000 0.0000 2.6796 -2.3044 -40.9971 1.5122 7.1250 -0.0000 -0.0000 44.2711 -65.7462 -24.2151
-0.7315 18.6498 6.0073 -2.1582 -2.0560 0.5048 0.0000 0.0000 0.0000 -13.0465 -8.8648 0.4031 1.3053 7.2376 20.4212 1.7798 6.0939 -28.0087 8.2071 -16.2694 -53.3051 0.0000 0.0000 0.0000 0.0000 0.0000 0.0000 0.0000 0.0000 0.0000 -0.0000 -0.0000 0.0000 -0.0000 -0.0000 0.0000 0.2890 0.7744 0.6317 0.5629 1.0517 -2.1656 0.3852 0.5253 -2.5797 0.1782 -1.1208 -10.9446 1.4149 -2.0054 25.4714 0.2304 -0.7556 9.8874 0.0000 -0.0000 0.0000 -91.8951 14.3067 24.9432 21.7796 -32.7270 -6.4663 -0.0000 -0.0000 9.9666 10.1918 -25.3134 -4.3956 -7.1250 0.0000 -0.0000 -11.7997 4.7692 11.0190 0.0000 -0.0000 0.0000 89.9560 -19.6519 24.8360 -27.0236 38.2016 -9.5137 0.0000 0.0000 2.5705 -2.3772 -40.9701 1.5592 7.1250 -0.0000 -0.0000 44.1586 -65.7484 -24.1450
-0.7311 18.6498 6.0088 -2.1632 -2.0563 0.5116 0.0000 0.0000 0.0000 -13.0364 -8.8304 0.3918 1.3043 7.2350 20.4134 1.7753 6.0880 -27.9749 8.2173 -16.2768 -53.3416 0.0000 0.0000 0.0000 0.0000 0.0000 0.0000 0.0000 0.0000 0.0000 -0.0000 -0.0000 0.0000 -0.0000 -0.0000 0.0000 0.2761 0.7654 0.6141 0.5755 1.0396 -2.1704 0.4060 0.5197 -2.5752 0.2047 -1.1113 -10.9052 1.3883 -1.9903 25.4558 0.2185 -0.7495 9.8735 0.0000 -0.0000 0.0000 -91.9051 14.3370 24.9333 21.8058 -32.7568 -6.4804 -0.0000 -0.0000 9.9760 10.1731 -25.3086 -4.3866 -7.1250 0.0000 -0.0000 -11.8109 4.7761 11.0283 0.0000 -0.0000 0.0000 89.9196 -19.6682 24.9304 -27.1143 38.2879 -9.5698 0.0000 0.0000 2.4961 -2.2741 -41.1200 1.4960 7.1250 -0.0000 -0.0000 44.4956 -65.8241 -24.4363
-0.7307 18.6501 6.0100 -2.1493 -2.0533 0.5256 0.0000 0.0000 0.0000 -13.0531 -8.8335 0.3782 1.3050 7.2368 20.4189 1.7782 6.0914 -27.9965 8.2117 -16.2728 -53.3218 0.0000 0.0000 0.0000 0.0000 0.0000 0.0000 0.0000 0.0000 0.0000 -0.0000 -0.0000 0.0000 -0.0000 -0.0000 0.0000 0.2530 0.7572 0.6030 0.5773 1.0283 -2.1868 0.4211 0.5145 -2.5861 0.2305 -1.1059 -10.8487 1.3611 -1.9804 25.4456 0.2062 -0.7460 9.8583 -0.0000 0.0000 0.0000 -91.9107 14.3711 24.9121 21.8221 -32.7753 -6.4892 -0.0000 -0.0000 9.9889 10.1071 -25.3656 -4.3668 -7.1250 0.0000 -0.0000 -11.8526 4.7274 11.0801 -0.0000 0.0000 0.0000 89.8877 -19.7016 25.0225 -27.2104 38.3791 -9.6295 0.0000 0.0000 2.4324 -2.1408 -41.1656 1.4095 7.1250 -0.0000 -0.0000 44.6956 -65.8170 -24.5587
-0.7310 18.6504 6.0083 -2.1379 -1.9970 0.5283 0.0000 0.0000 0.0000 -13.0631 -8.8813 0.3613 1.3070 7.2420 20.4344 1.7781 6.0765 -27.9874 8.1995 -16.2640 -53.2780 0.0000 0.0000 0.0000 0.0000 0.0000 0.0000 0.0000 0.0000 0.0000 -0.0000 -0.0000 0.0000 -0.0000 -0.0000 0.0000 0.2359 0.7341 0.6439 0.5770 0.9975 -2.2003 0.4306 0.4995 -2.6231 0.1940 -1.1019 -10.8328 1.3970 -1.9764 25.4552 0.2255 -0.7436 9.8594 -0.0000 -0.0000 0.0000 -91.9253 14.3573 24.8799 21.8151 -32.7675 -6.4855 -0.0000 -0.0000 10.0012 10.0654 -25.3544 -4.3467 -7.1250 0.0000 -0.0000 -11.8775 4.7432 11.1008 -0.0000 -0.0000 0.0000 89.8557 -19.7079 25.1443 -27.2791 38.4441 -9.6722 0.0000 0.0000 2.3036 -2.1665 -41.0778 1.4240 7.1250 -0.0000 -0.0000 44.5312 -65.7629 -24.3989
-0.7317 18.6512 6.0045 -2.1565 -1.8920 0.5257 0.0000 0.0000 0.0000 -13.0205 -8.8895 0.3085 1.3089 7.2473 20.4500 1.7641 6.0393 -27.8707 8.2202 -16.2789 -53.3521 0.0000 0.0000 0.0000 0.0000 0.0000 0.0000 0.0000 0.0000 0.0000 -0.0000 -0.0000 0.0000 -0.0000 -0.0000 0.0000 0.2556 0.7019 0.7145 0.5736 0.9555 -2.2149 0.4162 0.4781 -2.6774 0.1725 -1.1048 -10.8512 1.4407 -1.9879 25.4798 0.2429 -0.7457 9.8726 -0.0000 -0.0000 0.0000 -91.9073 14.3393 24.8972 21.8071 -32.7583 -6.4811 -0.0000 -0.0000 9.9946 10.0698 -25.3083 -4.3413 -7.1250 0.0000 -0.0000 -11.8733 4.7881 11.0865 -0.0000 -0.0000 0.0000 89.8600 -19.7140 25.2346 -27.3437 38.5049 -9.7123 0.0000 0.0000 2.1919 -2.1546 -41.1192 1.4173 7.1250 -0.0000 -0.0000 44.6085 -65.7885 -24.4741
-0.7322 18.6517 6.0028 -2.1800 -1.8327 0.5219 0.0000 0.0000 0.0000 -12.9853 -8.9099 0.2863 1.3112 7.2534 20.4682 1.7613 6.0083 -27.8339 8.2223 -16.2803 -53.3594 0.0000 0.0000 0.0000 0.0000 0.0000 0.0000 0.0000 0.0000 0.0000 -0.0000 -0.0000 0.0000 -0.0000 -0.0000 0.0000 0.2923 0.6935 0.7566 0.5600 0.9451 -2.2297 0.3815 0.4719 -2.7154 0.2055 -1.1188 -10.8336 1.4369 -2.0136 25.4770 0.2331 -0.7550 9.8681 0.0000 -0.0000 0.0000 -91.8506 14.3656 24.9781 21.8225 -32.7758 -6.4895 -0.0000 -0.0000 9.9479 10.1023 -25.2902 -4.3526 -7.1250 0.0000 -0.0000 -11.8530 4.8022 11.0635 0.0000 -0.0000 0.0000 89.8910 -19.7656 25.2891 -27.4512 38.6061 -9.7793 0.0000 0.0000 2.0863 -2.0087 -41.1829 1.3230 7.1250 -0.0000 -0.0000 44.8494 -65.7905 -24.6319
-0.7330 18.6514 6.0032 -2.2046 -1.8220 0.5141 0.0000 0.0000 0.0000 -12.9542 -8.9116 0.2840 1.3140 7.2606 20.4898 1.7686 5.9536 -27.8531 8.2015 -16.2655 -53.2852 0.0000 0.0000 0.0000 0.0000 0.0000 0.0000 0.0000 0.0000 0.0000 -0.0000 -0.0000 0.0000 -0.0000 -0.0000 0.0000 0.3061 0.6904 0.7759 0.5705 0.9416 -2.2301 0.3843 0.4700 -2.7266 0.2181 -1.1244 -10.8098 1.4173 -2.0183 25.4448 0.2238 -0.7586 9.8516 -0.0000 -0.0000 0.0000 -91.8556 14.3783 24.9917 21.8494 -32.8064 -6.5041 -0.0000 -0.0000 9.9100 10.0404 -25.2456 -4.3184 -7.1250 0.0000 -0.0000 -11.8890 4.8532 11.0869 -0.0000 -0.0000 0.0000 89.8797 -19.7822 25.3562 -27.5502 38.6988 -9.8412 0.0000 0.0000 1.9953 -1.8583 -41.2317 1.2251 7.1250 -0.0000 -0.0000 45.0707 -65.7806 -24.7655
-0.7330 18.6509 6.0043 -2.2392 -1.8161 0.5216 0.0000 0.0000 0.0000 -12.9064 -8.8875 0.2555 1.3166 7.2676 20.5107 1.7670 5.9335 -27.8309 8.2152 -16.2752 -53.3340 0.0000 0.0000 0.0000 0.0000 0.0000 0.0000 0.0000 0.0000 0.0000 -0.0000 -0.0000 0.0000 -0.0000 -0.0000 0.0000 0.3175 0.6839 0.7571 0.5970 0.9336 -2.2234 0.4056 0.4661 -2.7094 0.1531 -1.1219 -10.8249 1.4933 -2.0210 25.4559 0.2610 -0.7574 9.8601 0.0000 0.0000 0.0000 -91.8971 14.3736 24.9623 21.8687 -32.8283 -6.5145 -0.0000 -0.0000 9.9104 9.9287 -25.2524 -4.2706 -7.1250 0.0000 -0.0000 -11.9567 4.8591 11.1516 0.0000 0.0000 0.0000 89.8473 -19.7606 25.4106 -27.6112 38.7558 -9.8793 0.0000 0.0000 1.9876 -1.7999 -41.2823 1.1877 7.1250 -0.0000 -0.0000 45.2072 -65.7987 -24.8723
-0.7325 18.6509 6.0052 -2.2719 -1.8036 0.5444 0.0000 0.0000 0.0000 -12.8591 -8.8718 0.2075 1.3194 7.2750 20.5326 1.7652 5.9223 -27.8122 8.2263 -16.2832 -53.3737 0.0000 0.0000 0.0000 0.0000 0.0000 0.0000 0.0000 0.0000 0.0000 -0.0000 -0.0000 0.0000 -0.0000 -0.0000 0.0000 0.3355 0.6741 0.7086 0.6171 0.9210 -2.2137 0.4173 0.4597 -2.6721 0.1076 -1.1153 -10.8033 1.5528 -2.0165 25.4265 0.2902 -0.7533 9.8466 -0.0000 -0.0000 0.0000 -91.9248 14.3657 24.9370 21.8814 -32.8428 -6.5214 -0.0000 -0.0000 9.9283 9.8969 -25.3096 -4.2657 -7.1250 0.0000 -0.0000 -11.9778 4.8063 11.1844 -0.0000 -0.0000 0.0000 89.8161 -19.7452 25.4722 -27.6798 38.8198 -9.9223 0.0000 0.0000 2.0074 -1.7781 -41.2218 1.1719 7.1250 -0.0000 -0.0000 45.1312 -65.7502 -24.7744
-0.7323 18.6512 6.0059 -2.2995 -1.7976 0.5657 0.0000 0.0000 0.0000 -12.8179 -8.8497 0.1609 1.3219 7.2816 20.5522 1.7686 5.8688 -27.8051 8.2054 -16.2683 -53.2993 0.0000 0.0000 0.0000 0.0000 0.0000 0.0000 0.0000 0.0000 0.0000 -0.0000 -0.0000 0.0000 -0.0000 -0.0000 0.0000 0.3686 0.6670 0.6782 0.6199 0.9119 -2.2010 0.4024 0.4545 -2.6413 0.1777 -1.1033 -10.7691 1.4585 -1.9876 25.3307 0.2489 -0.7449 9.8035 -0.0000 0.0000 0.0000 -91.9238 14.3191 24.9126 21.8496 -32.8067 -6.5042 -0.0000 -0.0000 9.9408 9.9500 -25.3374 -4.2934 -7.1250 0.0000 -0.0000 -11.9466 4.7730 11.1616 -0.0000 0.0000 0.0000 89.8160 -19.7172 25.5322 -27.7519 38.8869 -9.9676 0.0000 0.0000 1.9905 -1.7229 -41.1102 1.1330 7.1250 -0.0000 -0.0000 45.0055 -65.6560 -24.5990
